<svg t="1698117889946" class="icon" viewBox="0 0 1024 1024" version="1.1" xmlns="http://www.w3.org/2000/svg" p-id="4975" width="32" height="32"><path d="M919.3 815.8H174.1V138.7c0-4.8-3.9-8.7-8.7-8.7h-60.7c-4.8 0-8.7 3.9-8.7 8.7v746.6c0 4.8 3.9 8.7 8.7 8.7h814.6c4.8 0 8.7-3.9 8.7-8.7v-60.8c0-4.8-3.9-8.7-8.7-8.7z m-649.9-82h60.7c4.8 0 8.7-4.9 8.7-10.8V528.8c0-6-3.9-10.8-8.7-10.8h-60.7c-4.8 0-8.7 4.9-8.7 10.8v194.3c0.1 5.8 4 10.7 8.7 10.7z m164.7 0h60.7c4.8 0 8.7-4.9 8.7-10.8V291.3c0-6-3.9-10.8-8.7-10.8h-60.7c-4.8 0-8.7 4.9-8.7 10.8v431.8c0 5.8 3.9 10.7 8.7 10.7z m164.6 0h60.7c4.8 0 8.7-4.9 8.7-10.8V396.5c0-6-3.9-10.8-8.7-10.8h-60.7c-4.8 0-8.7 4.9-8.7 10.8V723c0 5.9 3.9 10.8 8.7 10.8z m164.6 0H824c4.8 0 8.7-4.9 8.7-10.8V183.2c0-6-3.9-10.8-8.7-10.8h-60.7c-4.8 0-8.7 4.9-8.7 10.8V723c0.1 5.9 4 10.8 8.7 10.8z" p-id="4976" fill="#ffffff"></path></svg>