<svg t="1698117660404" class="icon" viewBox="0 0 1024 1024" version="1.1" xmlns="http://www.w3.org/2000/svg" p-id="3989" width="32" height="32"><path d="M266.479 202.468h309.453q9.102 0 9.102 9.102v54.613q0 9.102-9.102 9.102H266.479q-9.102 0-9.102-9.102V211.57q0-9.102 9.102-9.102zM266.479 349.173h420.99q9.101 0 9.101 9.102v54.613q0 9.102-9.102 9.102h-420.99q-9.101 0-9.101-9.102v-54.613q0-9.102 9.102-9.102z" fill="#ffffff" p-id="3990"></path><path d="M912.498 93.298a36.409 36.409 0 0 0-36.41-36.41H147.912a36.409 36.409 0 0 0-36.409 36.41v746.154a127.5 127.5 0 0 0 127.5 127.488h637.087a36.409 36.409 0 0 0 36.409-36.408zM184.32 129.707h655.36v582.2H239.002a126.68 126.68 0 0 0-54.682 12.38z m0 710.747a54.738 54.738 0 0 1 54.67-55.751h600.69v109.351H239.912c-29.935 0.069-55.012-23.654-55.592-53.555z" fill="#ffffff" p-id="3991"></path></svg>