<svg t="1698117215220" class="icon" viewBox="0 0 1024 1024" version="1.1" xmlns="http://www.w3.org/2000/svg" p-id="6877" width="32" height="32"><path d="M955.414862 82.233922h-238.853716v-30.709763c0-28.321226-22.861713-51.182939-51.182939-51.182939s-51.182939 22.861713-51.182939 51.182939v30.709763h-204.731756v-30.709763c0-28.321226-22.861713-51.182939-51.182939-51.182939S307.097634 23.202932 307.097634 51.524159v30.709763H68.243919C30.709763 82.233922 0 112.943685 0 150.477841v805.27824c0 37.534155 30.709763 68.243919 68.243919 68.243919h887.170943c37.534155 0 68.243919-30.709763 68.243918-68.243919V150.477841c0-37.534155-30.709763-68.243919-68.243918-68.243919z m-243.28957 479.413529l-231.346885 231.346884c-8.18927 8.18927-18.767078 11.942686-29.344885 11.942686s-21.155615-4.094635-29.003665-11.942686l-87.010997-87.010996c-16.037321-16.037321-16.037321-41.97001 0-58.007331s41.97001-16.037321 58.007331 0l58.007331 58.007331 202.684439-202.684439c16.037321-16.037321 41.97001-16.037321 58.007331 0 16.037321 16.71976 16.037321 42.31123 0 58.348551zM941.766078 297.202266H81.892702V215.309563c0-22.520493 18.425858-40.946351 40.946352-40.946351h184.25858v20.473176c0 28.321226 22.861713 51.182939 51.182939 51.182939s51.182939-22.861713 51.182939-51.182939v-20.473176h204.731756v20.473176c0 28.321226 22.861713 51.182939 51.182939 51.182939s51.182939-22.861713 51.182939-51.182939v-20.473176h184.258581c22.520493 0 40.946351 18.425858 40.946351 40.946351v81.892703z" fill="#ffffff" p-id="6878"></path><path d="M1023.65878 150.477841c0-37.534155-30.709763-68.243919-68.243918-68.243919h-238.853716v-30.709763c0-28.321226-22.861713-51.182939-51.182939-51.182939s-51.182939 22.861713-51.182939 51.182939v30.709763h-204.731756v-30.709763c0-28.321226-22.861713-51.182939-51.182939-51.182939S307.097634 23.202932 307.097634 51.524159v30.709763H68.243919C30.709763 82.233922 0 112.943685 0 150.477841v805.27824c0 37.534155 30.709763 68.243919 68.243919 68.243919h401.274242c244.313229-112.261246 441.879374-309.486171 554.140619-554.14062V150.477841z m-311.533488 411.16961l-231.346885 231.346884c-8.18927 8.18927-18.767078 11.942686-29.344885 11.942686-10.577807 0-21.155615-4.094635-29.003665-11.942686l-87.010997-87.010996c-16.037321-16.037321-16.037321-41.97001 0-58.007331s41.97001-16.037321 58.007331 0l58.007331 58.007331 202.684439-202.684439c16.037321-16.037321 41.97001-16.037321 58.007331 0 16.037321 16.71976 16.037321 42.31123 0 58.348551zM941.766078 297.202266H81.892702V215.309563c0-22.520493 18.425858-40.946351 40.946352-40.946351h184.25858v20.473176c0 28.321226 22.861713 51.182939 51.182939 51.182939s51.182939-22.861713 51.182939-51.182939v-20.473176h204.731756v20.473176c0 28.321226 22.861713 51.182939 51.182939 51.182939s51.182939-22.861713 51.182939-51.182939v-20.473176h184.258581c22.520493 0 40.946351 18.425858 40.946351 40.946351v81.892703z" fill="#ffffff" p-id="6879"></path><path d="M716.561146 51.524159c0-28.321226-22.861713-51.182939-51.182939-51.182939s-51.182939 22.861713-51.182939 51.182939v30.709763h-204.731756v-30.709763c0-28.321226-22.861713-51.182939-51.182939-51.182939S307.097634 23.202932 307.097634 51.524159v30.709763H68.243919C30.709763 82.233922 0 112.943685 0 150.477841v737.034322c149.795402 0 290.719094-37.192936 414.240586-102.707098l-78.821726-78.821726c-16.037321-16.037321-16.037321-41.97001 0-58.007331s41.97001-16.037321 58.007331 0l58.007331 58.007331 202.684439-202.684439c16.037321-16.037321 41.97001-16.037321 58.007331 0 4.094635 4.094635 6.824392 8.871709 8.871709 13.990004 48.111963-66.87904 87.010996-140.923692 114.991003-220.086638H81.892702V215.309563c0-22.520493 18.425858-40.946351 40.946352-40.946351h184.25858v20.473176c0 28.321226 22.861713 51.182939 51.182939 51.182939s51.182939-22.861713 51.182939-51.182939v-20.473176h204.731756v20.473176c0 28.321226 22.861713 51.182939 51.182939 51.182939s51.182939-22.861713 51.182939-51.182939v-20.473176h153.548817c6.141953-30.027324 10.577807-61.078307 13.307564-92.12929H716.561146v-30.709763z" fill="#ffffff" p-id="6880"></path><path d="M576.319893 297.202266H81.892702V215.309563c0-22.520493 18.425858-40.946351 40.946352-40.946351h184.25858v20.473176c0 28.321226 22.861713 51.182939 51.182939 51.182939s51.182939-22.861713 51.182939-51.182939v-20.473176h204.731756v20.473176c0 3.412196 0.34122 7.165611 1.023659 10.236588 21.155615-63.466844 32.757081-131.369543 33.098301-202.002-19.790736 7.165611-34.121959 25.932689-34.12196 48.111963v30.709763h-204.731756v-30.709763c0-28.321226-22.861713-51.182939-51.182939-51.182939S307.097634 23.202932 307.097634 51.524159v30.709763H68.243919C30.709763 82.233922 0 112.943685 0 150.477841v498.180606c251.137621 0 468.835721-142.62979 576.319893-351.456181z" fill="#ffffff" p-id="6881"></path><path d="M81.892702 297.202266V215.309563c0-22.520493 18.425858-40.946351 40.946352-40.946351h184.25858v20.473176c0 19.108297 10.236588 35.486838 25.59147 44.358547 41.287571-57.666111 68.243919-126.25125 75.06831-200.637121C401.956681 16.37854 382.165945 0.34122 358.280573 0.34122c-28.321226 0-51.182939 22.861713-51.182939 51.182939v30.709763H68.243919C30.709763 82.233922 0 112.943685 0 150.477841v259.326891c109.19027 0 208.485172-42.993669 281.847384-112.602466H81.892702z" fill="#ffffff" p-id="6882"></path></svg>