<svg t="1697607675626" class="icon" viewBox="0 0 1024 1024" version="1.1" xmlns="http://www.w3.org/2000/svg" p-id="5869" width="32" height="32"><path d="M640 832c-0.64 36.032-13.184 66.176-37.504 90.496-24.32 24.32-54.528 36.8-90.496 37.504-36.032-0.64-66.176-13.184-90.496-37.504-24.32-24.32-36.8-54.528-37.504-90.496h256z m192-64H133.952a36.736 36.736 0 0 1-27.008-11.008 37.312 37.312 0 0 1-11.008-27.52c0-10.944 3.712-19.968 11.008-27.008a41.344 41.344 0 0 1 27.008-11.456H192V448c1.344-78.72 25.664-146.56 72.96-203.52 47.36-56.96 108.352-93.76 183.04-110.464-0.64-12.032 1.472-23.36 6.464-34.048a60.8 60.8 0 0 1 23.488-25.984 63.04 63.04 0 0 1 68.032 0 60.8 60.8 0 0 1 23.488 25.984c4.992 10.688 7.168 22.016 6.528 34.048 76.032 17.344 137.344 54.528 184 111.488 46.656 56.96 70.656 124.48 72 202.496v243.008h57.984a41.6 41.6 0 0 1 27.008 11.52c7.36 6.976 11.008 16 11.008 26.944a37.248 37.248 0 0 1-11.008 27.52 36.864 36.864 0 0 1-27.008 11.008H832z" fill="#FFFFFF" p-id="5870"></path></svg>